<svg xmlns="http://www.w3.org/2000/svg" viewBox="0 0 302.35 302.34"><defs><style>.cls-1{fill:#ef4744;}.cls-2{fill:#fff;}</style></defs><title>Asset 8</title><g id="Layer_2" data-name="Layer 2"><g id="Layer_1-2" data-name="Layer 1"><path class="cls-1" d="M151.17,0A151.17,151.17,0,1,0,302.35,151.17,151.17,151.17,0,0,0,151.17,0Zm28.47,215.62H145.07q-2.83,0-2.83-3.42,0-9.85.73-29.59T143.7,153c0-1.88-.29-2.89-.88-3q-1.06.58-13.08,30.17-7,17.39-14.06,34.67c-.66,1.5-1.47,2.38-2.45,2.64-.32.06-1.62.1-3.9.1-3.39,0-5.41-.66-6.06-2Q98,204.88,89.41,184.37,80.23,162.7,75.64,153a3.13,3.13,0,0,0-.88-1.07,4.62,4.62,0,0,0-.69,2.83q0,9.57.49,28.71t.49,28.71q0,3.42-2.73,3.42H39.7c-1.3,0-2.1-.21-2.39-.63a4,4,0,0,1-.44-2.2q0-10.65,1-32t1-32q0-11.34-1-42.48-.09-8.11-.88-24.13L37,80.56q-.09-1.95,4.11-2,5.37,0,16.11-.34t16.11-.34c.72,0,1.73,1.36,3,4.1l28.52,62.6c2,4.23,3.71,6.34,5.07,6.34q1.08,0,4.59-7.32,9.87-20.51,29.2-61.82C144.81,79.29,146,78,147.32,78q2.82,0,8.54.3t8.64.29q2.44,0,7.47-.49c3.36-.32,5.85-.49,7.47-.49,2,0,2.93.79,2.93,2.35q0,11.52-.83,34.42t-.83,34.43q0,10.63.88,31.93t.88,31.84C182.47,214.61,181.53,215.62,179.64,215.62Zm70.9-10.94q-14.65,12.51-35.65,15.92a9.74,9.74,0,0,1-1.27.1q-2.24,0-10-13.72T196,190.23c0-.71.49-1.17,1.46-1.37q14.16-3.21,18.75-5.46,10.16-5.09,10.16-15,0-6.35-6.64-14.16-11.52-13.29-12.5-14.75A39.79,39.79,0,0,1,200.44,117q0-17.86,16.5-29.69,13.49-9.76,33.11-12.69c.72-.07,1.27-.1,1.66-.1q1.47,0,2.34,2.34,2.55,7.14,11.82,25.78a2.24,2.24,0,0,1,.29,1c0,1.11-.58,1.66-1.75,1.66a20.25,20.25,0,0,1-2.64-.29,19.27,19.27,0,0,0-2.83-.3,23.14,23.14,0,0,0-12.31,3.23q-6.34,3.7-6.35,10.35,0,6,7,14.65,12.39,15.61,13,16.4,6.94,10.75,6.94,21.39Q267.24,190.53,250.54,204.68Z"/><path class="cls-2" d="M180.71,148.83q0-11.54.83-34.43T182.37,80c0-1.56-1-2.35-2.93-2.35-1.62,0-4.11.17-7.47.49s-5.84.49-7.47.49q-2.92,0-8.64-.29t-8.54-.3c-1.31,0-2.51,1.27-3.62,3.81q-19.33,41.31-29.2,61.82Q111,151,109.91,151c-1.36,0-3.06-2.11-5.07-6.34L76.32,82c-1.3-2.74-2.31-4.1-3-4.1q-5.37,0-16.11.34t-16.11.34q-4.2,0-4.11,2l.1,1.66q.78,16,.88,24.13,1,31.14,1,42.48,0,10.63-1,32t-1,32a4,4,0,0,0,.44,2.2c.29.42,1.09.63,2.39.63H72.32q2.73,0,2.73-3.42,0-9.57-.49-28.71t-.49-28.71a4.62,4.62,0,0,1,.69-2.83,3.13,3.13,0,0,1,.88,1.07q4.59,9.67,13.77,31.35,8.58,20.5,13.86,31.25c.65,1.3,2.67,2,6.06,2,2.28,0,3.58,0,3.9-.1,1-.26,1.79-1.14,2.45-2.64q7-17.28,14.06-34.67,12-29.58,13.08-30.17c.59.13.88,1.14.88,3q0,9.87-.73,29.59t-.73,29.59q0,3.42,2.83,3.42h34.57c1.89,0,2.83-1,2.83-3q0-10.56-.88-31.84T180.71,148.83Z"/><path class="cls-2" d="M260.3,149.31q-.58-.78-13-16.4-7-8.7-7-14.65,0-6.65,6.35-10.35a23.14,23.14,0,0,1,12.31-3.23,19.27,19.27,0,0,1,2.83.3,20.25,20.25,0,0,0,2.64.29c1.17,0,1.75-.55,1.75-1.66a2.24,2.24,0,0,0-.29-1Q256.6,84,254.05,76.85q-.87-2.34-2.34-2.34c-.39,0-.94,0-1.66.1q-19.63,2.92-33.11,12.69-16.5,11.82-16.5,29.69a39.79,39.79,0,0,0,6.74,22.46q1,1.47,12.5,14.75,6.65,7.81,6.64,14.16,0,10-10.16,15-4.59,2.23-18.75,5.46c-1,.2-1.46.66-1.46,1.37q0,3,7.71,16.75t10,13.72a9.74,9.74,0,0,0,1.27-.1q21-3.42,35.65-15.92,16.7-14.15,16.7-34Q267.24,160.07,260.3,149.31Z"/></g></g></svg>