<?xml version="1.0" encoding="utf-8"?>
<!-- Generator: Adobe Illustrator 24.0.1, SVG Export Plug-In . SVG Version: 6.00 Build 0)  -->
<svg version="1.1" id="Layer_1" xmlns="http://www.w3.org/2000/svg" xmlns:xlink="http://www.w3.org/1999/xlink" x="0px" y="0px"
	 viewBox="0 0 22 16" style="enable-background:new 0 0 22 16;" xml:space="preserve">
<style type="text/css">
	.st0{fill:none;}
	.st1{fill-rule:evenodd;clip-rule:evenodd;fill:#1890FF;}
</style>
<title>person_add</title>
<desc>Created with Sketch.</desc>
<g id="Icons">
	<g id="Rounded" transform="translate(-679.000000, -4102.000000)">
		<g id="Social" transform="translate(100.000000, 4044.000000)">
			<g id="_x2D_Round-_x2F_-Social-_x2F_-person_x5F_add" transform="translate(578.000000, 54.000000)">
				<g>
					<polygon id="Path" class="st0" points="0,0 24,0 24,24 0,24 					"/>
					<path id="_xD83D__xDD39_-Icon-Color" class="st1" d="M15,12c2.2,0,4-1.8,4-4s-1.8-4-4-4s-4,1.8-4,4S12.8,12,15,12z M6,10V8
						c0-0.6-0.4-1-1-1S4,7.4,4,8v2H2c-0.5,0-1,0.4-1,1s0.5,1,1,1h2v2c0,0.6,0.4,1,1,1s1-0.4,1-1v-2h2c0.6,0,1-0.4,1-1s-0.4-1-1-1H6z
						 M15,14c-2.7,0-8,1.3-8,4v1c0,0.5,0.4,1,1,1h14c0.5,0,1-0.5,1-1v-1C23,15.3,17.7,14,15,14z"/>
				</g>
			</g>
		</g>
	</g>
</g>
</svg>
