<svg xmlns="http://www.w3.org/2000/svg" xmlns:xlink="http://www.w3.org/1999/xlink" viewBox="0 0 1374.58 2492.39"><defs><style>.cls-1{fill:#b1060f;stroke:#000;stroke-miterlimit:13.1;stroke-width:3.27px;}.cls-2{fill:url(#radial-gradient);}.cls-3{fill:#e50914;}</style><radialGradient id="radial-gradient" cx="18014.07" cy="1711.02" r="368.72" gradientTransform="matrix(0.23, -0.08, 2.94, 8.48, -8531.99, -11836.54)" gradientUnits="userSpaceOnUse"><stop offset="0"/><stop offset="1" stop-opacity="0"/></radialGradient></defs><title>logo_netflix</title><g id="Layer_2" data-name="Layer 2"><g id="svg2"><g id="layer1"><g id="g4182"><g id="g5747"><path id="path4155" class="cls-1" d="M884,3.6l-1,550.05-1,550.05L836.86,976v-.33L778.25,2200.19c57.63,162.4,88.4,249.16,88.73,249.49s33.07,2.29,72.69,4.26c119.83,5.89,268.47,18.66,381.43,32.74,26.19,3.27,48.46,4.91,50.09,3.6s2-561.18,1.64-1244.49l-1-1242.19Z"/><path id="path4157" class="cls-1" d="M1.64,2V1245.47c0,684,.65,1244.15,1.63,1245.14s43.22-3.28,94.3-8.84S219,2469,254.07,2466.05c53.7-4.58,214.78-14.73,233.12-15.06,5.56,0,5.89-27.83,6.54-526.8l1-526.8,39,110c5.89,17,7.86,22.26,13.75,39L606,322.17c-12.45-35-5.9-16.7-20-56.64C538.26,130.31,497.66,16,496,10.8l-3.28-9.16H1.64Z"/><path id="path5715" class="cls-1" d="M884,3.6l-1,550.05-1,550.05L836.86,976v-.33L778.25,2200.19c57.63,162.4,88.4,249.16,88.73,249.49s33.07,2.29,72.69,4.26c119.83,5.89,268.47,18.66,381.43,32.74,26.19,3.27,48.46,4.91,50.09,3.6s2-561.18,1.64-1244.49l-1-1242.19Z"/><path id="path5717" class="cls-1" d="M1.64,2V1245.47c0,684,.65,1244.15,1.63,1245.14s43.22-3.28,94.3-8.84S219,2469,254.07,2466.05c53.7-4.58,214.78-14.73,233.12-15.06,5.56,0,5.89-27.83,6.54-526.8l1-526.8,39,110c5.89,17,7.86,22.26,13.75,39L606,322.17c-12.45-35-5.9-16.7-20-56.64C538.26,130.31,497.66,16,496,10.8l-3.28-9.16H1.64Z"/><path id="path5719" class="cls-2" d="M1.64,2V700L493.41,2004.4c0-29.79,0-46.16.32-80.21l1-526.8,39,110C749.77,2120.31,866,2449,866.65,2449.68c.33.33,33.07,2.29,72.69,4.26,119.83,5.89,268.48,18.66,381.43,32.74,26.2,3.27,48.46,4.91,50.1,3.6,1-1,1.63-275.35,1.63-662.68L883.35,420.39,883,553.65l-1,550.05L836.86,976c-44.2-124.74-73.67-208.23-251.45-710.48C537.61,130.31,497,16,495.37,10.8L492.1,1.64H1.64V2Z"/><path id="path5721" class="cls-3" d="M1.64,2,494.39,1398.37v-.66l39,110c216.42,612.59,332.65,941.31,333.3,942,.33.33,33.07,2.29,72.69,4.26,119.83,5.89,268.48,18.66,381.43,32.74,25.87,3.27,48.46,4.91,49.77,3.6L882,1103.37v.33L836.86,976c-44.2-124.74-73.67-208.23-251.45-710.48C537.61,130.31,497,16,495.37,10.8L492.1,1.64H246.87L1.64,2Z"/></g></g></g></g></g></svg>