<svg xmlns="http://www.w3.org/2000/svg" viewBox="0 0 250.24 124.1"><defs><style>.cls-1{fill:none;}.cls-2{fill:#f60;}</style></defs><title>logo_alibaba</title><g id="Layer_2" data-name="Layer 2"><g id="logo"><path class="cls-1" d="M60.72,49.83l-.14-.37L49.14,60.8a28.16,28.16,0,0,1-5.9-2.8v1.5c3.3,2,5.19,2.14,5.28,2.43Z"/><path class="cls-1" d="M134.78,16.73C106.69,21.46,92.27,26.3,57.14,38.4l.29.75c35.1-12.09,49.42-16.76,78.19-21.62Z"/><path class="cls-1" d="M42.62,79.13v-.85c-9.18,4.13-17.56,10-20.78,16.15C25.5,88.52,33.7,83,42.62,79.13Z"/><path d="M134.78,16.73l.84.8c-28.77,4.86-43.09,9.53-78.19,21.62l3.81,9.65-.66.66.14.37-12.2,12.1c-.09-.29-2-.42-5.28-2.43V78l-.62.28v.85C33.7,83,25.5,88.52,21.84,94.43a10.11,10.11,0,0,0,1.35,12,10.7,10.7,0,0,1-.77-2.84c-.1-9.2,15.2-18.7,23.8-21.7V66.43c17.7,6.2,38.5,4.3,56.4-8.8a11,11,0,0,1,.9,5.6h3.2a11.15,11.15,0,0,0-10.4-12.6,27.42,27.42,0,0,1,4.2,4.1c0,.2-.5.5-.5.5-23.1,16.1-45.4,8.7-47.5,8.1l12.8-12.7-3.5-9c25.4-8.8,46.8-15.6,81.5-21.6l-7.8-6.4,4.1-2.5c21,5.9,34.8,10.1,34,21.2,3.2-16.4-15.2-18.1-34.7-24.5l-7.5,4.23,4.72,4.44Z"/><path class="cls-2" d="M150,105.5c-10.1.5-9.1-4.7-3.2-12.7,13.7-18.3,39.8-43.7,40.7-61.8,1.6-23.6-22.3-31.2-46.9-31-17.1.3-34.8,5.1-46.9,9.4-41.6,14.6-67.8,38-84.3,63.8C-8,98.8-2.26,123.3,34.64,124.1c28.3-1.1,46.7-8.9,65.9-18.6.1,0-53,15-72.6,4a8.73,8.73,0,0,1-3.7-1.9,13.66,13.66,0,0,1-1-1.13,10.11,10.11,0,0,1-1.35-12c3.22-6.2,11.6-12,20.78-16.15l.62-.28V58a28.16,28.16,0,0,0,5.9,2.8L60.58,49.46l.66-.66-3.81-9.65-.29-.75c35.13-12.1,49.55-16.94,77.64-21.67l1.36-.23-4.72-4.44-.48-.46,8.5-4.8c19.9,7,42.9,8.1,32.6,30.5-6.1,12-24.3,32-31.6,40.3-4.9,5.5-9.6,10.9-13,16.1s-5.6,10.1-5.7,14.7c.4,36.2,107.7-16.9,128.5-31C219.54,90.5,186.54,103.1,150,105.5Z"/></g></g></svg>