<svg xmlns="http://www.w3.org/2000/svg" viewBox="0 0 2379.24 2451.88"><defs><style>.cls-1{fill:#f90;}.cls-2{fill-rule:evenodd;}</style></defs><title>logo_amazon</title><g id="Layer_2" data-name="Layer 2"><g id="Layer_1-2" data-name="Layer 1"><path class="cls-1" d="M2086.92,2018.38C1074.93,2500,446.87,2097,44.83,1852.29c-24.87-15.43-67.16,3.6-30.47,45.74,133.94,162.41,572.88,553.85,1145.84,553.85,573.34,0,914.43-312.85,957.1-367.42,42.38-54.11,12.45-84-30.39-66.08Zm284.22-157c-27.18-35.38-165.25-42-252.15-31.31-87,10.37-217.66,63.56-206.3,95.49,5.83,12,17.72,6.6,77.51,1.23,60-6,227.89-27.18,262.89,18.57,35.16,46.06-53.57,265.49-69.77,300.88-15.66,35.39,6,44.51,35.39,20.94,29-23.56,81.51-84.58,116.74-170.92,35-86.82,56.34-207.93,35.68-234.88Z"/><path class="cls-2" d="M1406.47,1035.62c0,126.37,3.19,231.76-60.68,344-51.56,91.25-133.22,147.36-224.46,147.36-124.56,0-197.09-94.9-197.09-235,0-276.48,247.72-326.66,482.23-326.66Zm327.1,790.64c-21.44,19.15-52.46,20.53-76.64,7.75-107.67-89.42-126.83-130.93-186.14-216.25C1292.87,1799.34,1167,1853.62,936.1,1853.62c-272.82,0-485.42-168.34-485.42-505.49,0-263.23,142.81-442.53,345.81-530.12,176.11-77.57,422-91.25,610-112.69v-42c0-77.11,5.92-168.35-39.24-235-39.7-59.77-115.43-84.41-182-84.41-123.63,0-234,63.41-261,194.81-5.49,29.2-26.92,57.94-56.12,59.31L553.33,564.36c-26.46-6-55.65-27.38-48.36-68C577.51,115,922,0,1230.35,0,1388.21,0,1594.41,42,1719,161.51c157.85,147.35,142.79,344,142.79,558V1225c0,151.93,63,218.53,122.27,300.65,21,29.2,25.55,64.34-.92,86.23-66.15,55.2-183.86,157.85-248.63,215.34l-.92-.91"/><path class="cls-1" d="M2086.92,2018.38C1074.93,2500,446.87,2097,44.83,1852.29c-24.87-15.43-67.16,3.6-30.47,45.74,133.94,162.41,572.88,553.85,1145.84,553.85,573.34,0,914.43-312.85,957.1-367.42,42.38-54.11,12.45-84-30.39-66.08Zm284.22-157c-27.18-35.38-165.25-42-252.15-31.31-87,10.37-217.66,63.56-206.3,95.49,5.83,12,17.72,6.6,77.51,1.23,60-6,227.89-27.18,262.89,18.57,35.16,46.06-53.57,265.49-69.77,300.88-15.66,35.39,6,44.51,35.39,20.94,29-23.56,81.51-84.58,116.74-170.92,35-86.82,56.34-207.93,35.68-234.88Z"/><path class="cls-2" d="M1406.47,1035.62c0,126.37,3.19,231.76-60.68,344-51.56,91.25-133.22,147.36-224.46,147.36-124.56,0-197.09-94.9-197.09-235,0-276.48,247.72-326.66,482.23-326.66Zm327.1,790.64c-21.44,19.15-52.46,20.53-76.64,7.75-107.67-89.42-126.83-130.93-186.14-216.25C1292.87,1799.34,1167,1853.62,936.1,1853.62c-272.82,0-485.42-168.34-485.42-505.49,0-263.23,142.81-442.53,345.81-530.12,176.11-77.57,422-91.25,610-112.69v-42c0-77.11,5.92-168.35-39.24-235-39.7-59.77-115.43-84.41-182-84.41-123.63,0-234,63.41-261,194.81-5.49,29.2-26.92,57.94-56.12,59.31L553.33,564.36c-26.46-6-55.65-27.38-48.36-68C577.51,115,922,0,1230.35,0,1388.21,0,1594.41,42,1719,161.51c157.85,147.35,142.79,344,142.79,558V1225c0,151.93,63,218.53,122.27,300.65,21,29.2,25.55,64.34-.92,86.23-66.15,55.2-183.86,157.85-248.63,215.34l-.92-.91"/></g></g></svg>