<svg xmlns="http://www.w3.org/2000/svg" viewBox="0 0 23.49 24"><defs><style>.cls-1{fill:#4285f4;}.cls-2{fill:#34a853;}.cls-3{fill:#fbbc05;}.cls-4{fill:#ea4335;}</style></defs><title>logo_google</title><g id="Layer_2" data-name="Layer 2"><g id="Layer_1-2" data-name="Layer 1"><path class="cls-1" d="M23.49,12.27A13.9,13.9,0,0,0,23.3,10H12v4.51h6.47a5.57,5.57,0,0,1-2.4,3.58v3h3.86A11.73,11.73,0,0,0,23.49,12.27Z"/><path class="cls-2" d="M12,24a11.43,11.43,0,0,0,7.93-2.91l-3.86-3A7.24,7.24,0,0,1,12,19.25a7.17,7.17,0,0,1-6.73-5h-4v3.09A12,12,0,0,0,12,24Z"/><path class="cls-3" d="M5.27,14.29A7,7,0,0,1,4.89,12a7.23,7.23,0,0,1,.38-2.29V6.62h-4a11.86,11.86,0,0,0,0,10.76Z"/><path class="cls-4" d="M12,4.75a6.51,6.51,0,0,1,4.6,1.8L20,3.13A11.47,11.47,0,0,0,12,0,12,12,0,0,0,1.29,6.62l4,3.09A7.17,7.17,0,0,1,12,4.75Z"/></g></g></svg>