<svg xmlns="http://www.w3.org/2000/svg" viewBox="0 0 378.38 378.37"><defs><style>.cls-1{fill:#3c5b9a;}.cls-2{fill:#fefefe;fill-rule:evenodd;}</style></defs><title>logo_facebook</title><g id="Layer_2" data-name="Layer 2"><g id="Layer_1-2" data-name="Layer 1"><circle class="cls-1" cx="189.19" cy="189.19" r="189.19" transform="translate(-78.36 189.19) rotate(-45)"/><path class="cls-2" d="M159.54,246.28c0-17.7-.07-35.41.06-53.11,0-3-.81-3.92-3.8-3.79-5.52.22-11.05,0-16.57.1-2.24.06-3.06-.56-3-2.93q.17-16.58,0-33.15c0-2.13.62-2.82,2.77-2.78,5.65.13,11.31-.16,16.95.12,3.26.16,3.94-1,3.87-4q-.28-12.61,0-25.23c.22-10.27,3-19.86,9.1-28.21,7.74-10.57,18.74-15.41,31.44-16,13-.57,26.11-.25,39.16-.39,1.83,0,2.37.63,2.36,2.4q-.09,16.76,0,33.52c0,2-.63,2.59-2.58,2.56-6.28-.09-12.56,0-18.84,0-8.36,0-13.36,4.33-13.88,12.6-.42,6.63-.11,13.3-.27,20-.05,2.37,1.35,2.21,2.92,2.21,9.54,0,19.09.09,28.63-.07,2.8,0,3.72.6,3.4,3.54-1.2,11.11-2.23,22.23-3.18,33.36-.22,2.51-1.36,3-3.62,2.95-7.53-.12-15.06-.08-22.6,0-5.41,0-4.88-.79-4.88,4.72,0,34.66-.07,69.31.08,104,0,3.66-.92,4.57-4.55,4.5q-19.39-.36-38.79,0c-3.65.07-4.25-1.17-4.22-4.42C159.61,281.19,159.54,263.74,159.54,246.28Z"/></g></g></svg>