<svg xmlns="http://www.w3.org/2000/svg" viewBox="0 0 24 24"><path fill="#C70B01" d="M12 0C8.472.015 4.375.61 0 2.349c0 0 .195.525.672 1.396C4.674 1.989 8.585 1.435 12 1.46v.003c3.415-.03 7.326.528 11.328 2.28.535-.968.672-1.395.672-1.395C19.625.612 15.528.015 12 0z"/><path fill="#C70B01" d="M8.619 5.034 12 24l3.361-18.962c3.2 0 4.208.351 4.354 1.79 0 0 2.149-.802 3.231-2.438-4.226-1.964-8.471-2.054-8.471-2.054L12 5.362v.002h-.004L12 5.362 9.525 2.34s-4.245.091-8.47 2.056c1.083 1.635 3.229 2.43 3.229 2.43.147-1.438 1.155-1.792 4.335-1.792z"/></svg>