<svg xmlns="http://www.w3.org/2000/svg" viewBox="0 0 1282.1 1731.01"><defs><style>.cls-1{fill:#f99c1c;}</style></defs><title>logo_sq</title><g id="Layer_2" data-name="Layer 2"><g id="Layer_1-2" data-name="Layer 1"><path class="cls-1" d="M532.9,1058.61c22.89,35.71,21.84,102.18-3.72,144-20.86,34.17-252.37,380-252.37,380l120,0S668.34,1178,699.42,1125c37.08-63,49.54-136.39,4.51-211.41-17.41-29.39-436.45-686.79-436.45-686.79s-60,89-94.09,139.26c-20.7,28.8-28.4,69,2.63,128C176,494,521.23,1040,532.9,1058.61Z"/><path class="cls-1" d="M1161.21,1143.26H968.31c-36.83,0-81.38,32.72-104.76,67.38-18.32,27.36-150.28,225-174,256.78-13.51,17.92-25.08,21.85-35.8,21.94-5.9,0-23-.1-25.07-.1,7.85-15.79,229.37-338.16,273-409.1,52.67-87.39,64.59-202.77,1.93-313.49C880.75,726.51,420.35,0,420.35,0S359,88.23,333.47,126.11c-20.71,30.83-27.06,71.2,2.78,130.23,0,0,386.47,614.75,404.89,642.9,44.88,70.1,39.31,163.79,0,227.58C709.06,1179.45,442,1582.65,442,1582.65H653.61c76.65,0,95.46-28.45,116.61-52,21.17-23.74,136.25-198.2,149.25-216.57,13.31-18.21,46.87-69.75,91-69.75h139v4c-29.6,6-58.79,23.88-79.93,52.88-21.16,28.63-160.77,235.47-177.6,259.55-21.19,30.39-45.32,59.2-106.1,59.2l-583.59,0s268-392.24,287.87-424.75c23.38-39.72,20.81-95.63,0-129.33-11.17-17.83-383.18-603.39-383.18-603.39S40.88,562,20.08,592.81C-.73,623.4-13.08,661.58,22.61,722.93c0,0,266.46,420.53,277.69,438.35,21.7,34.32,20.75,97.32-3.47,137C276.92,1330.39,2.16,1731,2.16,1731H795c80.53,0,124.72-31.33,163.7-87.33,33.71-47.61,164.13-237.12,184.14-266.86,19.72-29.79,59.48-49.61,77.25-49.61h62Z"/></g></g></svg>