<svg xmlns="http://www.w3.org/2000/svg" viewBox="0 0 380.42 380.42"><defs><style>.cls-1{fill:#ff5621;}.cls-2{fill:#06a449;}.cls-3{fill:#08e8ff;}.cls-4{fill:#e31d25;}.cls-5{fill:#468ef7;}.cls-6{fill:#000184;}</style></defs><title>logo_sea</title><g id="Layer_2" data-name="Layer 2"><g id="svg4746"><path class="cls-1" d="M130.68,72.62a284,284,0,0,1-36.36,2,284,284,0,0,1-36.36-2c-5-.54-10.27-1.2-15.64-2A190.65,190.65,0,0,0,23.6,98.4c.86,0,1.73,0,2.62,0a279.63,279.63,0,0,1,36.35,2,345.66,345.66,0,0,1,94.07,23.39A332.86,332.86,0,0,0,192,135.94a333.78,333.78,0,0,0,35.39-12.14,345.66,345.66,0,0,1,94.07-23.39,278.89,278.89,0,0,1,35.34-2,191,191,0,0,0-64.58-68.74,340.62,340.62,0,0,0-67.51,19.57A346.19,346.19,0,0,1,130.68,72.62Z"/><path class="cls-2" d="M227.41,123.8A333.78,333.78,0,0,1,192,135.94a352.81,352.81,0,0,0,55.65,10.92v-.05l1,.17a365.06,365.06,0,0,0,38.15,2.22A364.71,364.71,0,0,0,325,147c.69-.1,1-.17,1-.17v.05a354.89,354.89,0,0,0,47.19-8.65,188.54,188.54,0,0,0-16.4-39.81,278.89,278.89,0,0,0-35.34,2A345.66,345.66,0,0,0,227.41,123.8Z"/><path class="cls-3" d="M326,146.81s-.35.07-1,.17a364.71,364.71,0,0,1-38.13,2.22A365.06,365.06,0,0,1,248.71,147l-1-.17v.05A352.81,352.81,0,0,1,192,135.94a332.86,332.86,0,0,1-35.38-12.14,345.66,345.66,0,0,0-94.07-23.39,279.63,279.63,0,0,0-36.35-2c-.89,0-1.76,0-2.62,0A189.35,189.35,0,0,0,0,190.21a192.62,192.62,0,0,0,1.32,22.4,350.34,350.34,0,0,0,70.79,15.58v-.05s.37.07,1,.16a354.19,354.19,0,0,0,38.15,2.21,353.84,353.84,0,0,0,38.13-2.21c.69-.09,1-.16,1-.16v.05a345.52,345.52,0,0,0,91-23.06,345.66,345.66,0,0,1,94.07-23.39,279.56,279.56,0,0,1,36.34-2c2.88,0,5.61,0,8.21.07a189.48,189.48,0,0,0-6.91-41.59A354.89,354.89,0,0,1,326,146.86Z"/><path class="cls-4" d="M42.32,70.61c5.37.81,10.6,1.47,15.64,2a284,284,0,0,0,36.36,2,284,284,0,0,0,36.36-2,346.19,346.19,0,0,0,94-23.39,340.62,340.62,0,0,1,67.51-19.57,190.23,190.23,0,0,0-249.92,41Z"/><path class="cls-5" d="M335.58,181.74a345.66,345.66,0,0,0-94.07,23.39,345.52,345.52,0,0,1-91,23.06v-.05s-.35.07-1,.16a353.84,353.84,0,0,1-38.13,2.21,354.19,354.19,0,0,1-38.15-2.21c-.67-.09-1-.16-1-.16v.05A350.34,350.34,0,0,1,1.32,212.61a188.83,188.83,0,0,0,15.79,56.53q3.18-.06,6.61,0a279.89,279.89,0,0,1,36.37,2,345.37,345.37,0,0,1,94,23.39,345.62,345.62,0,0,0,91,23.06v-.05s.36.07,1,.16a362.74,362.74,0,0,0,38.15,2.23,362.56,362.56,0,0,0,38.14-2.23c.68-.09,1-.16,1-.16v.05c2.93-.33,5.93-.72,9-1.15a189.49,189.49,0,0,0,47.91-126.2q0-5.24-.29-10.41c-2.6-.05-5.33-.08-8.21-.07A279.56,279.56,0,0,0,335.58,181.74Z"/><path class="cls-6" d="M323.54,317.51s-.35.07-1,.16a362.56,362.56,0,0,1-38.14,2.23,362.74,362.74,0,0,1-38.15-2.23c-.68-.09-1-.16-1-.16v.05a345.62,345.62,0,0,1-91-23.06,345.37,345.37,0,0,0-94-23.39,279.89,279.89,0,0,0-36.37-2q-3.43,0-6.61,0a190.23,190.23,0,0,0,315.4,47.27c-3,.43-6,.82-9,1.15Z"/></g></g></svg>