<svg xmlns="http://www.w3.org/2000/svg" viewBox="0 0 496.25 608.73"><defs><style>.cls-1{fill:#999;}</style></defs><title>logo_apple</title><g id="Layer_2" data-name="Layer 2"><g id="Ebene_1" data-name="Ebene 1"><path class="cls-1" d="M338,97.31C377.68,49.56,369.41,0,369.41,0s-55.6.26-95.6,53c-35.57,46.88-26.51,87-26.51,87S295.52,148.29,338,97.31Z"/><path class="cls-1" d="M414.24,322.59c0-81.67,65.84-115.33,65.84-115.33s-33.66-60.88-119.22-60.88c-49.71,0-87.9,28.28-108.48,28.28-24,0-59.74-26.59-105.85-26.59C75.61,148.07,0,211.58,0,332.63c0,123,89.33,276.1,160,276.1,24.68,0,62.58-24.86,100.76-24.86,37.48,0,65.13,24,100.69,24,77.43,0,134.76-161.35,134.76-161.35S414.24,414.72,414.24,322.59Z"/></g></g></svg>