<svg xmlns="http://www.w3.org/2000/svg" viewBox="0 0 171.08 172.85"><defs><style>.cls-1{fill:#f33;}</style></defs><title>logo_dbs</title><g id="Layer_2" data-name="Layer 2"><g id="layer"><g id="Logomark"><path class="cls-1" d="M138.84,140.44l-41.5-35.1s-5.6-5.5-11.9-5.5-12,5.5-12,5.5l-41.5,35.1-.1-.1,34.8-41.9s5.5-5.7,5.5-12.1-5.5-12-5.5-12l-34.8-42,.1-.1,41.5,35.2S79,73,85.44,73s11.9-5.6,11.9-5.6l41.5-35.2.2.2-34.9,41.9s-5.4,5.7-5.4,12,5.4,12.1,5.4,12.1l34.9,41.9Zm19.4-54.1h0c0-11.4.5-21.5,8.8-39.4,2.4-5.2,7.7-12.8-.1-21.6-6.4-6.4-13.6-5.4-18.5-2.5,2.8-4.9,3.9-12.3-2.5-18.7-8.7-7.9-16.3-2.5-21.4-.1-17.7,8.4-27.7,8.9-39,8.9s-21.4-.5-39-8.9c-5.1-2.4-12.7-7.8-21.4.1-6.4,6.5-5.3,13.8-2.5,18.7-4.9-2.9-12.2-3.9-18.5,2.5-7.9,8.8-2.5,16.4-.1,21.6,8.4,17.9,8.9,28.1,8.9,39.4s-.5,21.6-8.9,39.5c-2.4,5.2-7.7,12.8.1,21.6,6.4,6.4,13.7,5.3,18.5,2.5-2.8,4.9-3.9,12.3,2.5,18.7,8.7,8,16.3,2.6,21.4.1,17.7-8.4,27.7-8.9,39-8.9s21.3.4,39,8.9c5.1,2.4,12.7,7.8,21.4-.1,6.4-6.4,5.3-13.7,2.5-18.7,4.9,2.8,12.1,3.9,18.5-2.5,7.9-8.8,2.5-16.5.1-21.6-8.4-17.9-8.8-28.1-8.8-39.5Z"/></g></g></g></svg>