<svg xmlns="http://www.w3.org/2000/svg" viewBox="0 0 199 108.81"><defs><style>.cls-1{fill:#ed1a3d;}.cls-2{fill:#231f20;}</style></defs><title>logo_singtel</title><g id="Layer_2" data-name="Layer 2"><g id="svg10353"><g id="layer1"><path id="path7463" class="cls-1" d="M43.66,42.51a6.49,6.49,0,1,1,5.71-7.17,6.49,6.49,0,0,1-5.71,7.17"/><path id="path7467" class="cls-1" d="M68.36,25.28A8.23,8.23,0,1,1,78.73,20a8.22,8.22,0,0,1-10.37,5.27"/><path id="path7471" class="cls-1" d="M97,17.09a10,10,0,1,1,14.09-.16A10,10,0,0,1,97,17.09"/><path id="path7475" class="cls-1" d="M124.86,18.77A11.7,11.7,0,1,1,140,25.46a11.7,11.7,0,0,1-15.14-6.69"/><path id="path7479" class="cls-1" d="M152.42,30.42a14,14,0,1,1,14.05,14,14,14,0,0,1-14.05-14"/><path id="path7483" class="cls-2" d="M108.77,55.47c-11.1,0-19.16,8.06-19.16,19.16,0,8.75,5,17.58,16.09,17.58a16,16,0,0,0,7.84-1.88v1.6c0,4.26-1,8.19-8,8.19a17,17,0,0,1-4.56-.64,30.05,30.05,0,0,1-5-2.2l-.19-.08a1.64,1.64,0,0,0-2,.6c-.22.31-2.53,3.88-2.69,4.2l-.21.62,0,.24a1.72,1.72,0,0,0,.56,1.26,12.5,12.5,0,0,0,2.51,1.68l.78.39a26.71,26.71,0,0,0,11.91,2.62c5.62,0,10.07-1.59,13.21-4.73,3.88-3.88,3.88-7.78,3.88-12.72V59.3l-.31-.14a33.33,33.33,0,0,0-14.64-3.69Zm4.77,26.74a11.54,11.54,0,0,1-5.63,1.61c-4,0-8-3-8-9.69,0-6,3.58-10.27,8.69-10.27a14.14,14.14,0,0,1,4.92,1V82.21"/><path id="path7487" class="cls-2" d="M48,58.07l0-.22a1.65,1.65,0,0,0-1.62-1.38h-7a1.66,1.66,0,0,0-1.65,1.66V90.56a1.65,1.65,0,0,0,1.65,1.65h7A1.65,1.65,0,0,0,48,90.83l0-.25V58.07"/><path id="path7491" class="cls-2" d="M199,47.52A1.64,1.64,0,0,0,197.36,46h-7a1.63,1.63,0,0,0-1.64,1.61v43.1a1.64,1.64,0,0,0,1.64,1.53h7A1.65,1.65,0,0,0,199,90.63V47.52"/><path id="path7495" class="cls-2" d="M168.72,55.47c-9.94,0-17.16,8-17.16,19.08,0,11.34,7,18.66,17.8,18.66a25.72,25.72,0,0,0,12.4-3.2c.35-.18,1.3-1,.48-2.63L180.53,84A1.72,1.72,0,0,0,179,83a2,2,0,0,0-.79.18l-.21.1A18.71,18.71,0,0,1,170.22,85a8.75,8.75,0,0,1-6.59-2.53,7.43,7.43,0,0,1-2-4.67h23.22V74.49c0-11.91-6-19-16.09-19Zm-7.13,14.75c.84-4.28,3.63-6.92,7.35-6.92,5.52,0,6.19,5.18,6.26,6.92H161.59"/><path id="path7499" class="cls-2" d="M149,85.21A1.71,1.71,0,0,0,147.31,84l-.67.11a11,11,0,0,1-2.92.4c-3.76,0-4.07-2.66-4.07-5.63V65.15h9.06a1.65,1.65,0,0,0,1.65-1.66V58.13a1.65,1.65,0,0,0-1.51-1.64l-.12,0h-9.08V47.62A1.65,1.65,0,0,0,138,46h-7a1.64,1.64,0,0,0-.73.18,1.48,1.48,0,0,0-.92,1.42v30.9c0,4.88,0,8.41,3.09,11.5,2.82,2.82,7,3.24,9.3,3.24a17.61,17.61,0,0,0,7.63-1.6,2,2,0,0,0,.94-2.76L149,85.21"/><path id="path7503" class="cls-2" d="M14.83,60.35A9.36,9.36,0,0,1,13,59.29a3.6,3.6,0,0,1-1-1l-.21-.41-.1-.25a3.39,3.39,0,0,1-.2-1.15,3.46,3.46,0,0,1,.51-1.8,5.31,5.31,0,0,1,3.08-2.35c3.69-1.2,7.69-.08,10.94,1.8l.61.32a2.23,2.23,0,0,0,1.08.36,1.84,1.84,0,0,0,1.38-.62v0c1.2-1.44,3.09-4.35,3.12-4.4a1.87,1.87,0,0,0,0-1.9l-.33-.45L31.46,47a24.29,24.29,0,0,0-17.62-3.73,16.35,16.35,0,0,0-9.36,4.84A13.58,13.58,0,0,0,2.82,64.1C5,67.54,8.57,69.7,12.2,71.27c2.68,1.26,5.62,2.07,8.1,3.72a4.65,4.65,0,0,1,2.25,4A4.79,4.79,0,0,1,20,83.15a8.74,8.74,0,0,1-2.42.91,11,11,0,0,1-2.63.2c-.49,0-1-.06-1.48-.12-2.9-.25-5.45-1.59-8-2.86l-.19-.1a1.83,1.83,0,0,0-2.14.65C2.91,82.16.42,86,.25,86.37L0,87l0,.27a1.85,1.85,0,0,0,.6,1.36,21.84,21.84,0,0,0,8.92,4.09c5.27,1.12,11,1,15.89-1.44,8.15-3.74,10.86-15.87,4.67-22.49-4.12-4.31-10-6-15.25-8.47"/><path id="path7507" class="cls-2" d="M85.73,82.45V72.33c0-4.42,0-9.44-3.88-13.34a12.92,12.92,0,0,0-9.36-3.52,11.56,11.56,0,0,0-8.13,3.31v-.65a1.93,1.93,0,0,0-.06-.42h0v0l0,0,0-.1v-.06l-.43-.58-.09-.07,0,0h0a1.63,1.63,0,0,0-1-.32h-7A1.66,1.66,0,0,0,54,58.14V90.56a1.66,1.66,0,0,0,1.66,1.66h7a1.64,1.64,0,0,0,1.62-1.39l0-.25V84.05h0V66.41a12,12,0,0,1,6.13-2A4.88,4.88,0,0,1,74,65.55c1.19,1.19,1.39,3.39,1.39,7.87V90.56a1.66,1.66,0,0,0,1.66,1.66h7a1.66,1.66,0,0,0,1.63-1.39l0-.25V82.45h0"/></g></g></g></svg>